{
  "accessors": [
    {
      "bufferView": 2,
      "componentType": 5126,
      "count": 7205,
      "max": [
        0.37864100933074951,
        0.57757610082626343,
        0.43079259991645813
      ],
      "min": [
        -0.35018792748451233,
        -0.42128241062164307,
        -0.3243739902973175
      ],
      "type": "VEC3"
    },
    {
      "bufferView": 2,
      "byteOffset": 86460,
      "componentType": 5126,
      "count": 7205,
      "max": [
        0.99994635581970215,
        0.99995720386505127,
        0.99960893392562866
      ],
      "min": [
        -0.99967622756958008,
        -0.99986559152603149,
        -0.99993503093719482
      ],
      "type": "VEC3"
    },
    {
      "bufferView": 3,
      "componentType": 5126,
      "count": 7205,
      "max": [
        0.9997941255569458,
        0.99342179298400879,
        0.99891537427902222,
        1
      ],
      "min": [
        -0.99874740839004517,
        -0.99951839447021484,
        -0.99996805191040039,
        1
      ],
      "type": "VEC4"
    },
    {
      "bufferView": 1,
      "componentType": 5126,
      "count": 7205,
      "max": [
        0.99876892566680908,
        0.99884742498397827
      ],
      "min": [
        0.0011524921283125877,
        0.0011524921283125877
      ],
      "type": "VEC2"
    },
    {
      "bufferView": 0,
      "componentType": 5125,
      "count": 15000,
      "max": [
        7204
      ],
      "min": [
        0
      ],
      "type": "SCALAR"
    }
  ],
  "asset": {
    "extras": {
      "author": "Loïc Norgeot (https://sketchfab.com/norgeotloic)",
      "license": "CC-BY-4.0 (http://creativecommons.org/licenses/by/4.0/)",
      "source": "https://sketchfab.com/models/f117cd1683c24be6bd1da4c16038c2c6",
      "title": "BakeMyScan - baking example"
    },
    "generator": "Sketchfab-3.43.3",
    "version": "2.0"
  },
  "bufferViews": [
    {
      "buffer": 0,
      "byteLength": 60000,
      "byteOffset": 0,
      "name": "floatBufferViews",
      "target": 34963
    },
    {
      "buffer": 0,
      "byteLength": 57640,
      "byteOffset": 60000,
      "byteStride": 8,
      "name": "floatBufferViews",
      "target": 34962
    },
    {
      "buffer": 0,
      "byteLength": 172920,
      "byteOffset": 117640,
      "byteStride": 12,
      "name": "floatBufferViews",
      "target": 34962
    },
    {
      "buffer": 0,
      "byteLength": 115280,
      "byteOffset": 290560,
      "byteStride": 16,
      "name": "floatBufferViews",
      "target": 34962
    }
  ],
  "buffers": [
    {
      "byteLength": 405840,
      "uri": "scene.bin"
    }
  ],
  "images": [
    {
      "uri": "textures/zbrushpolymesh3d001_baked_material.004_metallicRoughness.png"
    },
    {
      "uri": "textures/zbrushpolymesh3d001_baked_material.004_normal.jpeg"
    },
    {
      "uri": "textures/zbrushpolymesh3d001_baked_material.004_baseColor.jpeg"
    }
  ],
  "materials": [
    {
      "doubleSided": true,
      "emissiveFactor": [
        0,
        0,
        0
      ],
      "name": "zbrushpolymesh3d001_baked_material.004",
      "normalTexture": {
        "index": 1,
        "scale": 1,
        "texCoord": 0
      },
      "occlusionTexture": {
        "index": 0,
        "strength": 1,
        "texCoord": 0
      },
      "pbrMetallicRoughness": {
        "baseColorFactor": [
          1,
          1,
          1,
          1
        ],
        "baseColorTexture": {
          "index": 2,
          "texCoord": 0
        },
        "metallicFactor": 1,
        "metallicRoughnessTexture": {
          "index": 0,
          "texCoord": 0
        },
        "roughnessFactor": 1
      }
    }
  ],
  "meshes": [
    {
      "name": "ZBrushPolyMesh3D.001_zbrushpolymesh3d001_baked_material.004_0",
      "primitives": [
        {
          "attributes": {
            "NORMAL": 1,
            "POSITION": 0,
            "TANGENT": 2,
            "TEXCOORD_0": 3
          },
          "indices": 4,
          "material": 0,
          "mode": 4
        }
      ]
    }
  ],
  "nodes": [
    {
      "children": [
        1
      ],
      "name": "RootNode (gltf orientation matrix)",
      "rotation": [
        -0.70710678118654746,
        -0,
        -0,
        0.70710678118654757
      ]
    },
    {
      "children": [
        2
      ],
      "name": "RootNode (model correction matrix)"
    },
    {
      "children": [
        3
      ],
      "matrix": [
        1,
        0,
        0,
        0,
        0,
        0,
        1,
        0,
        0,
        -1,
        0,
        0,
        0,
        0,
        0,
        1
      ],
      "name": "bakemyscan.fbx"
    },
    {
      "children": [
        4
      ],
      "name": "RootNode"
    },
    {
      "children": [
        5
      ],
      "matrix": [
        100,
        0,
        0,
        0,
        0,
        -4.3711390063094768e-06,
        -99.999999999999901,
        0,
        0,
        99.999999999999901,
        -4.3711390063094768e-06,
        0,
        0,
        0,
        -54.491786956787109,
        1
      ],
      "name": "ZBrushPolyMesh3D.001"
    },
    {
      "mesh": 0,
      "name": "ZBrushPolyMesh3D.001_zbrushpolymesh3d001_baked_material.004_0"
    }
  ],
  "samplers": [
    {
      "magFilter": 9729,
      "minFilter": 9987,
      "wrapS": 10497,
      "wrapT": 10497
    }
  ],
  "scene": 0,
  "scenes": [
    {
      "name": "OSG_Scene",
      "nodes": [
        0
      ]
    }
  ],
  "textures": [
    {
      "sampler": 0,
      "source": 0
    },
    {
      "sampler": 0,
      "source": 1
    },
    {
      "sampler": 0,
      "source": 2
    }
  ]
}

